<svg width="60" height="50" viewBox="0 0 60 50" fill="none" xmlns="http://www.w3.org/2000/svg">
<path d="M16.2528 6.63466V42.0014C16.2528 42.5799 16.6124 43.0881 17.144 43.2757L29.9492 47.7083C30.7935 47.9975 31.6691 47.3565 31.6691 46.434V2.85094C31.6691 1.95974 30.8404 1.31088 30.0039 1.56104L17.1987 5.34475C16.6359 5.50892 16.2528 6.04052 16.2528 6.63466Z" fill="#868686"/>
<path d="M30.684 49.2874C30.4338 49.2874 30.1837 49.2483 29.9492 49.1702L16.4404 44.6281C15.4944 44.3076 14.8612 43.4242 14.8612 42.4314V6.19687C14.8612 5.16494 15.5492 4.25029 16.542 3.96885L30.0508 0.0913277C30.7544 -0.11193 31.497 0.0287873 32.0834 0.466572C32.6697 0.912175 33.0058 1.58449 33.0058 2.31934V46.9734C33.0058 47.7161 32.6462 48.4197 32.0443 48.8575C31.6378 49.1389 31.1609 49.2874 30.684 49.2874ZM30.6918 1.88156C30.6527 1.88156 30.6136 1.88937 30.5667 1.89719L17.0579 5.77472C16.8703 5.82944 16.7452 6.00143 16.7452 6.19687V42.4314C16.7452 42.619 16.8625 42.7832 17.0423 42.8457L30.5433 47.3877C30.7309 47.4503 30.8716 47.3799 30.9342 47.3252C31.0045 47.2783 31.114 47.1688 31.114 46.9734V2.31934C31.114 2.13172 31.0045 2.02227 30.942 1.96755C30.8951 1.93628 30.8091 1.88156 30.6918 1.88156Z" fill="black"/>
<path d="M43.7864 45.6991H35.9297V43.8151H43.2548V4.89914H35.9297V3.01511H43.7864C44.5369 3.01511 45.1388 3.61706 45.1388 4.36755V44.3467C45.1388 45.0894 44.529 45.6991 43.7864 45.6991Z" fill="black"/>
<path d="M58.4833 28.7272H20.7166V19.9715H58.5146C59.1478 19.9715 59.6638 20.3702 59.6638 21.1207V27.5545C59.6716 28.2034 59.2964 28.7506 58.4833 28.7272Z" fill="black"/>
<path d="M20.74 28.7037H1.46184C0.945884 28.7819 0.297024 28.3832 0.390835 27.6171V21.105C0.34393 20.5265 0.695721 19.9793 1.46184 20.0184H20.7322V28.7037H20.74Z" fill="#F10000"/>
<path d="M25.6652 24.3337L27.7525 21.8555H28.5264V26.8744H27.9557V22.4965L25.6652 25.2171L23.3746 22.4965V26.8744H22.804V21.8555H23.5779L25.6652 24.3337ZM29.9961 21.8555H33.3421C33.5766 21.8555 33.772 21.9337 33.9362 22.0978C34.1004 22.262 34.1785 22.4575 34.1785 22.692V26.0379C34.1785 26.2724 34.1004 26.4679 33.9362 26.6321C33.772 26.7962 33.5766 26.8744 33.3421 26.8744H29.9961C29.7616 26.8744 29.5662 26.7962 29.402 26.6321C29.2378 26.4679 29.1597 26.2724 29.1597 26.0379V22.692C29.1597 22.4575 29.2378 22.262 29.402 22.0978C29.5662 21.9337 29.7616 21.8555 29.9961 21.8555ZM30.004 26.2959H33.3421C33.4124 26.2959 33.4828 26.2724 33.5297 26.2177C33.5844 26.163 33.6079 26.1005 33.6079 26.0301V22.692C33.6079 22.6216 33.5844 22.5513 33.5297 22.5044C33.475 22.4496 33.4124 22.4262 33.3421 22.4262H30.004C29.9336 22.4262 29.8632 22.4496 29.8163 22.5044C29.7616 22.5591 29.7382 22.6216 29.7382 22.692V26.0223C29.7382 26.0926 29.7616 26.163 29.8163 26.2099C29.8632 26.2724 29.9258 26.2959 30.004 26.2959ZM39.26 21.8555H39.8307V26.8744H39.26V24.6464H35.3903V26.8666H34.8196V21.8477H35.3903V24.0679H39.26V21.8555ZM40.4717 21.8555H45.4984V22.4262H43.2782V26.8744H42.7075V22.4262H40.4717V21.8555ZM46.9681 21.8555H50.3219C50.5564 21.8555 50.7518 21.9337 50.916 22.0978C51.0802 22.262 51.1583 22.4575 51.1583 22.692V26.8744H50.5877V25.0373H46.7101V26.8666H46.1395V22.692C46.1395 22.4575 46.2176 22.262 46.3818 22.0978C46.5382 21.9337 46.7336 21.8555 46.9681 21.8555ZM46.7023 24.4666H50.5798V22.692C50.5798 22.6216 50.5564 22.5513 50.5017 22.5044C50.4469 22.4496 50.3844 22.4262 50.3141 22.4262H46.9759C46.9056 22.4262 46.8352 22.4496 46.7883 22.5044C46.7336 22.5591 46.7101 22.6216 46.7101 22.692V24.4666H46.7023ZM54.129 24.0757H54.4652V21.8555H55.0359V24.0757H55.372L56.7479 21.8555H57.4984L55.8802 24.3649L57.4984 26.8744H56.7479L55.372 24.6464H55.0359V26.8666H54.4652V24.6464H54.129L52.5421 26.8666H51.7994L53.6209 24.3571L51.7916 21.8477H52.5421L54.129 24.0757Z" fill="white"/>
<path d="M2.49377 21.8477H6.67618C6.91071 21.8477 7.10615 21.9259 7.27032 22.09C7.43449 22.2542 7.51267 22.4496 7.51267 22.6842V24.1539C7.51267 24.3884 7.43449 24.5838 7.27032 24.748C7.10615 24.9122 6.91071 24.9903 6.67618 24.9903H3.33807C3.29899 24.9903 3.20518 24.9825 3.06446 24.9591V26.8509H2.49377V21.8477ZM6.9498 24.1539V22.692C6.9498 22.6216 6.92635 22.5513 6.87162 22.5044C6.8169 22.4496 6.75436 22.4262 6.684 22.4262H3.33807C3.26772 22.4262 3.19736 22.4496 3.15045 22.5044C3.09573 22.5591 3.07228 22.6216 3.07228 22.692V24.1539C3.07228 24.2242 3.09573 24.2868 3.15045 24.3415C3.20518 24.3962 3.26772 24.4197 3.33807 24.4197H6.67618C6.74654 24.4197 6.8169 24.3962 6.86381 24.3415C6.91853 24.2946 6.9498 24.232 6.9498 24.1539ZM13.0162 22.6842V24.1539C13.0162 24.3884 12.9381 24.5838 12.7739 24.748C12.6097 24.9122 12.4143 24.9903 12.1798 24.9903H11.4136L12.985 26.8587H12.2423L10.6788 24.9903H8.84166C8.80257 24.9903 8.70876 24.9825 8.56804 24.9591V26.8509H7.99736V21.8399H12.1798C12.4143 21.8399 12.6097 21.918 12.7739 22.0822C12.9381 22.2542 13.0162 22.4496 13.0162 22.6842ZM8.84166 24.4197H12.1798C12.2501 24.4197 12.3205 24.3962 12.3674 24.3415C12.4221 24.2868 12.4456 24.2242 12.4456 24.1539V22.692C12.4456 22.6216 12.4221 22.5513 12.3674 22.5044C12.3127 22.4496 12.2501 22.4262 12.1798 22.4262H8.84166C8.7713 22.4262 8.70094 22.4496 8.65403 22.5044C8.59931 22.5591 8.57586 22.6216 8.57586 22.692V24.1539C8.57586 24.2242 8.59931 24.2868 8.65403 24.3415C8.70094 24.3962 8.7713 24.4197 8.84166 24.4197ZM14.5798 21.8399H17.9257C18.1602 21.8399 18.3557 21.918 18.5198 22.0822C18.684 22.2464 18.7622 22.4418 18.7622 22.6763V26.0223C18.7622 26.2568 18.684 26.4522 18.5198 26.6164C18.3557 26.7806 18.1602 26.8587 17.9257 26.8587H14.5798C14.3452 26.8587 14.1498 26.7806 13.9856 26.6164C13.8215 26.4522 13.7433 26.2568 13.7433 26.0223V22.6763C13.7433 22.4418 13.8215 22.2464 13.9856 22.0822C14.1498 21.9259 14.3452 21.8399 14.5798 21.8399ZM14.5876 26.2881H17.9257C17.9961 26.2881 18.0664 26.2646 18.1133 26.2099C18.168 26.1552 18.1915 26.0926 18.1915 26.0223V22.692C18.1915 22.6216 18.168 22.5513 18.1133 22.5044C18.0586 22.4496 17.9961 22.4262 17.9257 22.4262H14.5876C14.5172 22.4262 14.4469 22.4496 14.4 22.5044C14.3452 22.5591 14.3218 22.6216 14.3218 22.692V26.0223C14.3218 26.0926 14.3452 26.163 14.4 26.2099C14.4469 26.2568 14.5094 26.2881 14.5876 26.2881Z" fill="white"/>
<path d="M58.6632 29.0946H1.32899C0.594137 29.0946 0 28.5004 0 27.7656V20.9643C0 20.2294 0.594137 19.6353 1.32899 19.6353H58.671C59.4059 19.6353 60 20.2294 60 20.9643V27.7656C60 28.4926 59.398 29.0946 58.6632 29.0946ZM1.32899 20.0184C0.813029 20.0184 0.390879 20.4405 0.390879 20.9565V27.7578C0.390879 28.2737 0.813029 28.6959 1.32899 28.6959H58.671C59.187 28.6959 59.6091 28.2737 59.6091 27.7578V20.9565C59.6091 20.4405 59.187 20.0184 58.671 20.0184H1.32899Z" fill="black"/>
</svg>
