<svg width="18" height="18" viewBox="0 0 18 18" fill="none" xmlns="http://www.w3.org/2000/svg">
<path fill-rule="evenodd" clip-rule="evenodd" d="M4.81136 1.37518C4.92929 1.4678 5.06174 1.59241 5.21412 1.74292C5.54058 2.06423 5.91932 2.57902 6.24432 3.07321C6.57295 3.57295 6.87748 4.09903 7.04816 4.46519L7.04827 4.46542L7.04838 4.46565C7.14512 4.6737 7.23232 4.86223 7.29361 5.02746C7.35586 5.19527 7.40758 5.37984 7.40792 5.58125C7.40861 6.00286 7.17977 6.32826 6.95934 6.62839C6.89601 6.7146 6.84221 6.78526 6.79583 6.84615C6.69587 6.97742 6.63034 7.06347 6.57788 7.16299C6.5267 7.26006 6.51177 7.33015 6.53599 7.44298C6.57092 7.60567 6.72276 7.9618 7.01759 8.42769C7.30273 8.87825 7.69313 9.38644 8.15958 9.85141C8.62593 10.3163 9.12605 10.6964 9.56762 10.9714C10.0226 11.2548 10.373 11.4003 10.5404 11.436C10.6569 11.4609 10.7296 11.4453 10.8269 11.3947C10.9295 11.3413 11.0208 11.2716 11.1628 11.1632C11.2186 11.1206 11.2822 11.0721 11.3574 11.0162L11.3575 11.0161L11.3632 11.0119C11.6643 10.7881 11.9989 10.5395 12.423 10.54C12.6326 10.5402 12.8206 10.5994 12.9862 10.667C13.1445 10.7315 13.3262 10.8231 13.5256 10.9235L13.5423 10.932C13.8918 11.1082 14.4114 11.4067 14.9144 11.7322C15.4086 12.0519 15.93 12.4251 16.2547 12.7522L16.2552 12.7527C16.4061 12.9051 16.531 13.0375 16.6238 13.1554C16.7137 13.2695 16.8124 13.4172 16.854 13.6008C16.9009 13.8076 16.8584 13.9797 16.8148 14.099C16.7952 14.1528 16.772 14.2045 16.7554 14.2414C16.7528 14.2472 16.7503 14.2528 16.7478 14.2583C16.7323 14.2926 16.7189 14.3225 16.7045 14.3567L16.7042 14.3576L16.7039 14.3584C16.5569 14.7068 16.3782 15.041 16.1699 15.3567L16.1693 15.3576L16.1687 15.3585C15.7617 15.9699 15.3788 16.3694 14.7837 16.6466C14.4745 16.7907 14.0326 16.9361 13.3459 16.8505C12.6855 16.7681 11.8262 16.4757 10.6534 15.8189L10.6531 15.8187C8.77645 14.7662 7.47427 13.8588 5.79449 12.1837C4.11965 10.5135 3.29642 9.42349 2.14321 7.32851C0.98225 5.21945 0.983913 3.91886 1.31545 3.2104C1.59382 2.61555 1.9973 2.23447 2.60666 1.82963L2.60786 1.82883L2.60906 1.82804C2.92505 1.62043 3.25938 1.4422 3.60787 1.29557L3.60902 1.29509L3.61017 1.29461C3.64466 1.28028 3.67483 1.26676 3.70932 1.2513C3.71473 1.24887 3.72024 1.2464 3.72589 1.24387C3.76295 1.22728 3.81464 1.20423 3.86841 1.1847C3.9876 1.1414 4.15933 1.09911 4.36578 1.14566C4.54933 1.18705 4.697 1.28537 4.81136 1.37518ZM4.04311 2.33297C3.75875 2.45269 3.48591 2.59813 3.228 2.76748C2.71322 3.10963 2.49255 3.34929 2.3344 3.68723C2.2293 3.91182 2.03479 4.79865 3.12876 6.786C4.23047 8.78742 4.98927 9.79197 6.58888 11.3871C8.18347 12.9773 9.39914 13.8256 11.2032 14.8373C12.3071 15.4556 13.0228 15.6765 13.4852 15.7341C13.9213 15.7885 14.15 15.7007 14.3087 15.6268C14.6493 15.4682 14.89 15.249 15.2316 14.736C15.4014 14.4786 15.5471 14.206 15.667 13.9219C15.6832 13.8832 15.699 13.8475 15.7124 13.8177C15.66 13.7554 15.5796 13.6693 15.456 13.5445C15.2223 13.3091 14.7887 12.9907 14.3033 12.6767C13.8268 12.3684 13.3425 12.0912 13.036 11.9366C12.8147 11.8251 12.673 11.7542 12.5611 11.7085C12.4522 11.6641 12.4206 11.665 12.4218 11.665C12.432 11.665 12.3972 11.6451 12.0284 11.9191C11.9907 11.9471 11.95 11.9784 11.9069 12.0114C11.7425 12.1374 11.5435 12.29 11.3463 12.3926C11.0517 12.546 10.7135 12.6232 10.3058 12.5363C9.94896 12.4602 9.46774 12.2346 8.97284 11.9263C8.46449 11.6097 7.89639 11.1775 7.36535 10.6482C6.83442 10.1189 6.39267 9.54395 6.06697 9.0293C5.75097 8.52997 5.51327 8.03883 5.43605 7.6791C5.34812 7.26951 5.42829 6.93126 5.58269 6.63836C5.68219 6.44962 5.83093 6.2546 5.95334 6.09409C5.98936 6.04687 6.0231 6.00263 6.05264 5.96242C6.2891 5.64045 6.28356 5.58913 6.28295 5.58353C6.28293 5.58334 6.28292 5.58321 6.28292 5.58312C6.2829 5.57228 6.2804 5.53075 6.23884 5.41873C6.19634 5.30416 6.13019 5.15918 6.02833 4.94014C5.88924 4.64183 5.61658 4.16614 5.30435 3.69135C4.98851 3.21106 4.66274 2.77863 4.4247 2.54444L4.42429 2.54405L4.42389 2.54365C4.29828 2.41958 4.2119 2.33917 4.14953 2.28683C4.11922 2.30037 4.08271 2.3165 4.04311 2.33297Z" fill="#566577"/>
</svg>
