<svg width="24" height="24" viewBox="0 0 24 24" fill="none" xmlns="http://www.w3.org/2000/svg">
<path fill-rule="evenodd" clip-rule="evenodd" d="M5.05811 5.25001L5.0625 5.25L9.47552 5.25C9.72775 5.25038 9.97739 5.30097 10.2099 5.3988C10.4423 5.4966 10.6529 5.63967 10.8295 5.81966C10.8296 5.81972 10.8296 5.81979 10.8297 5.81985L15.9454 11.0223L15.9468 11.0238C16.3016 11.3865 16.5001 11.8737 16.5 12.3811C16.5 12.3812 16.5 12.3813 16.5 12.3814V20.4375C16.5 21.9715 15.2902 23.25 13.7367 23.25H5.01562C3.46032 23.25 2.25 21.9721 2.25 20.4375V8.0625L2.25001 8.05811C2.25437 7.3147 2.55162 6.60298 3.0773 6.0773C3.60298 5.55162 4.3147 5.25437 5.05811 5.25001ZM15.75 12.3811L15 12.3808C15.0001 12.2658 14.9552 12.1554 14.875 12.0731C14.8748 12.0729 14.8746 12.0727 14.8744 12.0725L9.75876 6.87015C9.72152 6.83218 9.6771 6.802 9.62808 6.78137C9.57918 6.7608 9.52669 6.75014 9.47365 6.75H5.06494C4.71701 6.75255 4.38402 6.89189 4.13796 7.13796C3.89189 7.38402 3.75255 7.71701 3.75 8.06494V20.4375C3.75 21.181 4.32562 21.75 5.01562 21.75H13.7367C14.4238 21.75 15 21.1816 15 20.4375V12.3811H15.75Z" fill="#566577"/>
<path fill-rule="evenodd" clip-rule="evenodd" d="M9.375 5.25C9.78921 5.25 10.125 5.58579 10.125 6V11.0571C10.1277 11.2068 10.1884 11.3497 10.2943 11.4557C10.4003 11.5616 10.5432 11.6223 10.6929 11.625H15.75C16.1642 11.625 16.5 11.9608 16.5 12.375C16.5 12.7892 16.1642 13.125 15.75 13.125H10.6875C10.6861 13.125 10.6848 13.125 10.6834 13.125C10.6818 13.125 10.6802 13.125 10.6786 13.1249C10.1359 13.1185 9.61738 12.9 9.23367 12.5163C8.84995 12.1326 8.63153 11.6141 8.62505 11.0714C8.62502 11.0685 8.625 11.0655 8.625 11.0625V6C8.625 5.58579 8.96079 5.25 9.375 5.25Z" fill="#566577"/>
<path fill-rule="evenodd" clip-rule="evenodd" d="M10.3081 0.750013L10.3125 0.75L14.7198 0.750001C14.9723 0.750352 15.2222 0.800659 15.4552 0.898025C15.6881 0.995391 15.8995 1.13789 16.0772 1.31731L16.079 1.31914L21.1942 6.52106C21.1945 6.52131 21.1947 6.52156 21.1949 6.52181C21.5507 6.88234 21.7501 7.36849 21.75 7.875C21.75 7.87508 21.75 7.87516 21.75 7.87524V15.9375C21.75 17.4715 20.5402 18.75 18.9867 18.75H16.125V17.25H18.9867C19.6738 17.25 20.25 16.6816 20.25 15.9375V7.87476C20.25 7.76261 20.2059 7.65497 20.127 7.57519L15.0113 2.37269C15.011 2.37246 15.0108 2.37224 15.0106 2.37201C14.9723 2.33352 14.9268 2.30294 14.8767 2.28201C14.8265 2.261 14.7726 2.25013 14.7181 2.25H10.3149C9.96701 2.25255 9.63402 2.39189 9.38796 2.63796C9.14189 2.88402 9.00255 3.21701 9 3.56494V6H7.5V3.5625L7.50001 3.55811C7.50437 2.8147 7.80162 2.10298 8.3273 1.5773C8.85297 1.05162 9.5647 0.754367 10.3081 0.750013Z" fill="#566577"/>
<path fill-rule="evenodd" clip-rule="evenodd" d="M14.625 0.75C15.0392 0.75 15.375 1.08579 15.375 1.5V6.55711C15.3777 6.70683 15.4384 6.84972 15.5443 6.95567C15.6503 7.06163 15.7932 7.1223 15.9429 7.125H21C21.4142 7.125 21.75 7.46079 21.75 7.875C21.75 8.28921 21.4142 8.625 21 8.625H15.9375C15.9361 8.625 15.9348 8.625 15.9334 8.62499C15.9318 8.62498 15.9302 8.62497 15.9286 8.62495C15.3859 8.61847 14.8674 8.40005 14.4837 8.01633C14.1 7.63262 13.8815 7.11406 13.8751 6.57144C13.875 6.56846 13.875 6.56548 13.875 6.5625V1.5C13.875 1.08579 14.2108 0.75 14.625 0.75Z" fill="#566577"/>
</svg>
