<svg width="98" height="98" viewBox="0 0 98 98" fill="none" xmlns="http://www.w3.org/2000/svg">
<g clip-path="url(#clip0_20_845)">
<path d="M98 49C98 39.6083 97.5917 31.0333 96.1625 26.1333C94.5292 20.4167 92.6917 15.1083 87.5875 10.4125C81.4625 4.9 75.95 3.0625 67.9875 1.42917C62.0667 0.204167 55.125 0 50.8375 0H46.9583C42.6708 0 35.7292 0.204167 29.8083 1.42917C21.8458 3.0625 16.3333 4.9 10.2083 10.4125C5.30833 15.1083 3.675 20.4167 1.8375 26.1333C0.408333 31.0333 0 39.6083 0 49C0 58.3917 0.408333 66.9667 1.8375 71.8667C3.47083 77.5833 5.30833 82.8917 10.4125 87.5875C16.5375 93.1 22.05 94.9375 30.0125 96.5708C36.9542 98 45.1208 98 49 98C52.8792 98.2042 61.0458 98 67.9875 96.5708C75.95 94.9375 81.4625 93.1 87.5875 87.5875C92.6917 82.8917 94.5292 77.5833 96.1625 71.8667C97.5917 66.9667 98 58.3917 98 49Z" fill="url(#paint0_linear_20_845)"/>
</g>
<path d="M55.504 54.528L49.872 39.136C49.5947 38.4533 49.3067 37.6427 49.008 36.704C48.7093 35.7653 48.4107 34.752 48.112 33.664C47.8347 34.752 47.5467 35.776 47.248 36.736C46.9493 37.6747 46.6613 38.496 46.384 39.2L40.784 54.528H55.504ZM70.704 72H64.048C63.3013 72 62.6933 71.8187 62.224 71.456C61.7547 71.072 61.4027 70.6027 61.168 70.048L57.712 60.608H38.544L35.088 70.048C34.9173 70.5387 34.5867 70.9867 34.096 71.392C33.6053 71.7973 32.9867 72 32.24 72H25.552L43.728 25.728H52.528L70.704 72Z" fill="white"/>
<defs>
<linearGradient id="paint0_linear_20_845" x1="49" y1="0" x2="49" y2="98.0674" gradientUnits="userSpaceOnUse">
<stop stop-color="#F10000"/>
<stop offset="1" stop-color="#C30000"/>
</linearGradient>
<clipPath id="clip0_20_845">
<rect width="98" height="98" fill="white"/>
</clipPath>
</defs>
</svg>
