<svg width="44" height="44" viewBox="0 0 44 44" fill="none" xmlns="http://www.w3.org/2000/svg">
<rect x="0.5" y="0.5" width="43" height="43" rx="7.5" fill="#C30000"/>
<rect x="0.5" y="0.5" width="43" height="43" rx="7.5" stroke="#C30000"/>
<path fill-rule="evenodd" clip-rule="evenodd" d="M20.501 14.537C20.4489 13.6411 21.2318 13 22.0001 13C22.7685 13 23.5514 13.6411 23.4993 14.537L23.125 24.6426C23.1204 24.9346 23.0025 25.2137 22.7956 25.4205C22.5847 25.6315 22.2985 25.75 22.0001 25.75C21.7018 25.75 21.4156 25.6315 21.2046 25.4205C20.9978 25.2137 20.8798 24.9346 20.8753 24.6426L20.501 14.537ZM22.0149 14.5111C22.0149 14.5111 22.0148 14.511 22.0147 14.5109C22.0148 14.511 22.0149 14.5111 22.0149 14.5111ZM21.9854 14.5111C21.9854 14.5111 21.9855 14.511 21.9856 14.5109C21.9855 14.511 21.9854 14.5111 21.9854 14.5111Z" fill="white"/>
<path fill-rule="evenodd" clip-rule="evenodd" d="M20.5 29.5C20.5 28.6716 21.1716 28 22 28C22.8284 28 23.5 28.6716 23.5 29.5C23.5 30.3284 22.8284 31 22 31C21.1716 31 20.5 30.3284 20.5 29.5Z" fill="white"/>
</svg>
