<svg width="44" height="44" viewBox="0 0 44 44" fill="none" xmlns="http://www.w3.org/2000/svg">
<rect x="0.5" y="0.5" width="43" height="43" rx="7.5" fill="white"/>
<rect x="0.5" y="0.5" width="43" height="43" rx="7.5" stroke="#C30000"/>
<path fill-rule="evenodd" clip-rule="evenodd" d="M20.5008 14.537C20.4487 13.6411 21.2315 13 21.9999 13C22.7683 13 23.5511 13.6411 23.499 14.537L23.1248 24.6426C23.1202 24.9346 23.0022 25.2137 22.7954 25.4205C22.5844 25.6315 22.2983 25.75 21.9999 25.75C21.7015 25.75 21.4154 25.6315 21.2044 25.4205C20.9976 25.2137 20.8796 24.9346 20.875 24.6426L20.5008 14.537ZM22.0146 14.5111C22.0146 14.5111 22.0145 14.511 22.0144 14.5109C22.0146 14.511 22.0146 14.5111 22.0146 14.5111ZM21.9852 14.5111C21.9852 14.5111 21.9852 14.511 21.9854 14.5109C21.9853 14.511 21.9852 14.5111 21.9852 14.5111Z" fill="#C30000"/>
<path fill-rule="evenodd" clip-rule="evenodd" d="M20.5 29.5C20.5 28.6716 21.1716 28 22 28C22.8284 28 23.5 28.6716 23.5 29.5C23.5 30.3284 22.8284 31 22 31C21.1716 31 20.5 30.3284 20.5 29.5Z" fill="#C30000"/>
</svg>
