<svg width="52" height="52" viewBox="0 0 52 52" fill="none" xmlns="http://www.w3.org/2000/svg">
<g clip-path="url(#clip0_28_2817)">
<path d="M18.5131 36.5101C18.4517 36.5101 18.3903 36.5101 18.3284 36.5045C17.7349 36.469 17.1652 36.2584 16.6913 35.8993C16.2174 35.5403 15.8606 35.0488 15.6659 34.487C15.4712 33.9252 15.4473 33.3183 15.5973 32.743C15.7473 32.1677 16.0645 31.6497 16.5087 31.2545L24.3148 24.1286C24.4157 24.0352 24.4888 23.9157 24.526 23.7833C24.5631 23.6509 24.5629 23.5108 24.5253 23.3786C23.8282 20.8989 24.2595 18.6517 25.7089 17.2131C27.3837 15.5495 30.057 15.0311 32.2076 15.9522C32.3537 16.0148 32.4777 16.1196 32.5638 16.2533C32.6498 16.3869 32.6939 16.5433 32.6904 16.7022C32.6875 16.9095 32.6033 17.1075 32.456 17.2534L29.6374 20.0692C29.4974 20.2106 29.4189 20.4015 29.4189 20.6005C29.4189 20.7995 29.4974 20.9905 29.6374 21.1319L30.8815 22.3759C31.0229 22.5152 31.2134 22.5934 31.4119 22.5934C31.6104 22.5934 31.8009 22.5152 31.9423 22.3759L34.7754 19.5405C34.8647 19.4511 34.9739 19.3843 35.094 19.3454C35.2142 19.3066 35.3419 19.2969 35.4665 19.3171C35.5912 19.3372 35.7093 19.3868 35.811 19.4616C35.9128 19.5363 35.9953 19.6342 36.0518 19.7472L36.0556 19.7547C36.4901 20.6453 36.6181 21.8495 36.4114 23.0519C36.1901 24.3278 35.6145 25.4762 34.7942 26.2862C33.3678 27.6925 31.1449 28.1256 28.6962 27.4698C28.5655 27.4351 28.4277 27.4366 28.2978 27.4742C28.1679 27.5119 28.0507 27.5843 27.9589 27.6836L20.7546 35.5033C20.4727 35.8192 20.1274 36.0721 19.7412 36.2456C19.3549 36.4191 18.9365 36.5092 18.5131 36.5101ZM29.9651 17.0036C28.7904 17.0036 27.5942 17.454 26.7635 18.279C25.2701 19.7608 25.7089 22.0558 25.9667 22.9736C26.0797 23.372 26.0799 23.794 25.9673 24.1925C25.8548 24.5911 25.6339 24.9506 25.3292 25.2311L25.3254 25.2344L17.5085 32.3748C17.3603 32.5062 17.2395 32.6655 17.1528 32.8435C17.0662 33.0216 17.0155 33.215 17.0035 33.4127C16.9916 33.6104 17.0188 33.8085 17.0834 33.9956C17.1481 34.1828 17.249 34.3555 17.3803 34.5037C17.5117 34.6519 17.671 34.7727 17.849 34.8594C18.0271 34.946 18.2205 34.9967 18.4182 35.0087C18.6159 35.0206 18.814 34.9934 19.0012 34.9288C19.1883 34.8641 19.361 34.7632 19.5092 34.6319C19.5545 34.5918 19.5972 34.5489 19.6371 34.5034L19.647 34.4931L26.8592 26.665C27.1363 26.3653 27.49 26.1469 27.8821 26.0333C28.2742 25.9197 28.6899 25.9153 29.0843 26.0205C29.9946 26.2642 32.2681 26.6734 33.7423 25.218C34.7145 24.2608 35.1124 22.6928 34.9849 21.4553L33.0021 23.4395C32.5791 23.858 32.0081 24.0928 31.4131 24.0928C30.818 24.0928 30.247 23.858 29.824 23.4395L28.5767 22.1926C28.1574 21.7695 27.9222 21.1979 27.9222 20.6022C27.9222 20.0065 28.1574 19.4349 28.5767 19.0117L30.5454 17.043C30.353 17.0173 30.1592 17.0041 29.9651 17.0036ZM35.8395 20.5984L35.8371 20.6012L35.8395 20.5984Z" fill="#C30000"/>
<path d="M18.5 34.25C18.9142 34.25 19.25 33.9142 19.25 33.5C19.25 33.0858 18.9142 32.75 18.5 32.75C18.0858 32.75 17.75 33.0858 17.75 33.5C17.75 33.9142 18.0858 34.25 18.5 34.25Z" fill="#C30000"/>
</g>
<rect x="0.5" y="0.5" width="51" height="51" rx="7.5" stroke="#C30000"/>
<defs>
<clipPath id="clip0_28_2817">
<rect width="52" height="52" rx="8" fill="white"/>
</clipPath>
</defs>
</svg>
