<svg width="44" height="44" viewBox="0 0 44 44" fill="none" xmlns="http://www.w3.org/2000/svg">
<rect x="0.5" y="0.5" width="43" height="43" rx="7.5" fill="white"/>
<rect x="0.5" y="0.5" width="43" height="43" rx="7.5" stroke="#C30000"/>
<path fill-rule="evenodd" clip-rule="evenodd" d="M13.6725 16.0041C14.0845 15.9612 14.4532 16.2605 14.496 16.6725L15.8398 29.5919C15.8621 29.7727 15.9495 29.9394 16.0858 30.0605C16.2231 30.1826 16.4004 30.2501 16.5841 30.2501H27.4165C27.6002 30.2501 27.7775 30.1826 27.9148 30.0605C28.0511 29.9394 28.1385 29.7728 28.1608 29.5919L29.5041 16.6725C29.5469 16.2605 29.9156 15.9612 30.3276 16.0041C30.7396 16.0469 31.0389 16.4156 30.996 16.8276L29.6521 29.7529C29.6518 29.7563 29.6514 29.7597 29.651 29.763C29.5866 30.3104 29.3235 30.8152 28.9116 31.1814C28.4997 31.5477 27.9677 31.75 27.4165 31.7501H16.5841C16.0329 31.75 15.5009 31.5477 15.089 31.1814C14.6771 30.8152 14.414 30.3104 14.3496 29.763C14.3493 29.7604 14.349 29.7578 14.3487 29.7552L14.3485 29.753L13.0041 16.8276C12.9612 16.4157 13.2605 16.0469 13.6725 16.0041Z" fill="#C30000"/>
<path fill-rule="evenodd" clip-rule="evenodd" d="M10.75 13.75C10.75 12.9216 11.4216 12.25 12.25 12.25H31.75C32.5784 12.25 33.25 12.9216 33.25 13.75V16C33.25 16.8284 32.5784 17.5 31.75 17.5H12.25C11.4216 17.5 10.75 16.8284 10.75 16V13.75ZM31.75 13.75H12.25V16H31.75V13.75Z" fill="#C30000"/>
<path fill-rule="evenodd" clip-rule="evenodd" d="M25.1553 20.7197C25.4482 21.0126 25.4482 21.4874 25.1553 21.7803L19.9053 27.0303C19.6124 27.3232 19.1376 27.3232 18.8447 27.0303C18.5518 26.7374 18.5518 26.2626 18.8447 25.9697L24.0947 20.7197C24.3876 20.4268 24.8624 20.4268 25.1553 20.7197Z" fill="#C30000"/>
<path fill-rule="evenodd" clip-rule="evenodd" d="M18.8447 20.7197C19.1376 20.4268 19.6124 20.4268 19.9053 20.7197L25.1553 25.9697C25.4482 26.2626 25.4482 26.7374 25.1553 27.0303C24.8624 27.3232 24.3876 27.3232 24.0947 27.0303L18.8447 21.7803C18.5518 21.4874 18.5518 21.0126 18.8447 20.7197Z" fill="#C30000"/>
</svg>
