<svg width="18" height="18" viewBox="0 0 18 18" fill="none" xmlns="http://www.w3.org/2000/svg">
<path d="M9.0003 9C7.14054 9 5.50226 7.25273 5.34405 5.10469C5.26319 4.01484 5.60069 3.00586 6.29327 2.26406C6.9753 1.5293 7.93859 1.125 9.0003 1.125C10.055 1.125 11.0148 1.53281 11.7003 2.27109C12.3964 3.01992 12.7339 4.02539 12.653 5.10469C12.4948 7.25273 10.8566 9 9.0003 9ZM9.0003 2.25C8.25499 2.25 7.58351 2.52773 7.11593 3.03047C6.64132 3.54023 6.40929 4.25039 6.46554 5.02383C6.57804 6.5707 7.73819 7.87852 8.99679 7.87852C10.2554 7.87852 11.4155 6.5707 11.528 5.02383C11.5843 4.26094 11.3523 3.5543 10.8706 3.0375C10.4066 2.52773 9.73859 2.25 9.0003 2.25Z" fill="#566577"/>
<path d="M15.1878 16.875H2.81276C2.47526 16.875 2.17292 16.7344 1.96198 16.4848C1.73346 16.2106 1.64206 15.8379 1.70886 15.4617C2.00417 13.8164 2.93229 12.4313 4.38776 11.4645C5.68151 10.6031 7.31979 10.1285 9.00026 10.1285C10.6807 10.1285 12.319 10.6031 13.6128 11.4645C15.0682 12.4348 15.9964 13.8164 16.2917 15.4617C16.3585 15.8379 16.2671 16.2106 16.0385 16.4848C15.8276 16.7344 15.5253 16.875 15.1878 16.875ZM2.81979 15.75H15.1807C15.1878 15.7324 15.1913 15.7043 15.1842 15.6586C14.6393 12.6317 11.5948 11.25 9.00026 11.25C6.40573 11.25 3.3612 12.6317 2.81628 15.6586C2.80925 15.7043 2.81276 15.7324 2.81979 15.75Z" fill="#566577"/>
</svg>
