<svg width="20" height="21" viewBox="0 0 20 21" fill="none" xmlns="http://www.w3.org/2000/svg">
<path d="M9.75032 10.5C7.27064 10.5 5.08626 8.17031 4.87532 5.30625C4.76751 3.85312 5.21751 2.50781 6.14095 1.51875C7.05032 0.539063 8.3347 0 9.75032 0C11.1566 0 12.4363 0.54375 13.3503 1.52812C14.2784 2.52656 14.7284 3.86719 14.6206 5.30625C14.4097 8.17031 12.2253 10.5 9.75032 10.5ZM9.75032 1.5C8.75657 1.5 7.86126 1.87031 7.23782 2.54062C6.60501 3.22031 6.29564 4.16719 6.37064 5.19844C6.52064 7.26094 8.06751 9.00469 9.74564 9.00469C11.4238 9.00469 12.9706 7.26094 13.1206 5.19844C13.1956 4.18125 12.8863 3.23906 12.2441 2.55C11.6253 1.87031 10.7347 1.5 9.75032 1.5Z" fill="#566577"/>
<path d="M18.0003 21H1.50035C1.05035 21 0.647224 20.8124 0.365974 20.4796C0.061286 20.114 -0.060589 19.6171 0.0284735 19.1156C0.422223 16.9218 1.65972 15.075 3.60035 13.7859C5.32535 12.6375 7.50972 12.0046 9.75035 12.0046C11.991 12.0046 14.1753 12.6375 15.9003 13.7859C17.841 15.0796 19.0785 16.9218 19.4722 19.1156C19.5613 19.6171 19.4394 20.114 19.1347 20.4796C18.8535 20.8124 18.4503 21 18.0003 21ZM1.50972 19.5H17.991C18.0003 19.4765 18.005 19.439 17.9957 19.3781C17.2691 15.3421 13.2097 13.5 9.75035 13.5C6.29097 13.5 2.2316 15.3421 1.50504 19.3781C1.49566 19.439 1.50035 19.4765 1.50972 19.5Z" fill="#566577"/>
</svg>
